<svg xmlns="http://www.w3.org/2000/svg" width="736" height="650" viewBox="0 0 736 650" role="img" aria-labelledby="title desc"><title id="title">Ben Marshall. Connecting people, software and systems. Recorded GitHub activity: 18 Jul – 11 Sep 2026.</title><desc id="desc">Connecting people, software and systems. 1,193 recorded actions, 38 public and 1,155 private. 802 commits; 259 prs opened; 132 issues opened. 18 Jul – 11 Sep 2026. People, systems, software and AI are illustrative topic connections. Pulses represent batches of recorded activity, not individual collaborators.</desc><style>text{font-family:DejaVu Sans,Arial,sans-serif;font-variant-numeric:tabular-nums}.packet,.day-stats{opacity:0}@media(prefers-reduced-motion:reduce){*{animation:none!important}.packet,.day-stats{display:none}}</style><defs><linearGradient id="metal" x1="0" y1="0" x2="1" y2="1"><stop stop-color="#263946"/><stop offset="1" stop-color="#17232c"/></linearGradient></defs><rect width="100%" height="100%" fill="#10151b"/><text x="32" y="33" font-size="12" font-weight="400" text-anchor="start" fill="#9cb0bd">BENM-DEV</text><text x="704" y="33" font-size="12" font-weight="400" text-anchor="end" fill="#9cb0bd">SYDNEY</text><text x="33" y="88.3" font-size="43" font-weight="500" text-anchor="start" fill="#7290a1" opacity=".45" aria-hidden="true">Ben Marshall</text><text x="32" y="87" font-size="43" font-weight="500" text-anchor="start" fill="#e3edf3">Ben Marshall</text><text x="32" y="118" font-size="16" font-weight="400" text-anchor="start" fill="#9cb0bd">Connecting people, software and systems.</text><path d="M368.00 328.40C368.00 264.70 198.72 264.70 198.72 201.00" fill="none" stroke="#334856" stroke-width="1.3" stroke-dasharray="3 5"/><path d="M198.72 201.00C198.72 181.50 173.72 181.50 173.72 162.00" fill="none" stroke="#334856" stroke-width="1" stroke-dasharray="3 5"/><path d="M198.72 201.00C198.72 220.50 173.72 220.50 173.72 240.00" fill="none" stroke="#334856" stroke-width="1" stroke-dasharray="3 5"/><path d="M368.00 328.40C368.00 264.70 537.28 264.70 537.28 201.00" fill="none" stroke="#334856" stroke-width="1.3" stroke-dasharray="3 5"/><path d="M537.28 201.00C537.28 181.50 562.28 181.50 562.28 162.00" fill="none" stroke="#334856" stroke-width="1" stroke-dasharray="3 5"/><path d="M537.28 201.00C537.28 220.50 562.28 220.50 562.28 240.00" fill="none" stroke="#334856" stroke-width="1" stroke-dasharray="3 5"/><path d="M368.00 328.40C368.00 364.10 161.92 364.10 161.92 399.80" fill="none" stroke="#334856" stroke-width="1.3" stroke-dasharray="3 5"/><path d="M161.92 399.80C161.92 380.30 136.92 380.30 136.92 360.80" fill="none" stroke="#334856" stroke-width="1" stroke-dasharray="3 5"/><path d="M161.92 399.80C161.92 419.30 136.92 419.30 136.92 438.80" fill="none" stroke="#334856" stroke-width="1" stroke-dasharray="3 5"/><path d="M368.00 328.40C368.00 364.10 574.08 364.10 574.08 399.80" fill="none" stroke="#334856" stroke-width="1.3" stroke-dasharray="3 5"/><path d="M574.08 399.80C574.08 380.30 599.08 380.30 599.08 360.80" fill="none" stroke="#334856" stroke-width="1" stroke-dasharray="3 5"/><path d="M574.08 399.80C574.08 419.30 599.08 419.30 599.08 438.80" fill="none" stroke="#334856" stroke-width="1" stroke-dasharray="3 5"/><path d="M368.00 420.40C368.00 450.20 117.76 450.20 117.76 480.00" fill="none" stroke="#334856" stroke-width="1.2"/><path d="M368.00 420.40C368.00 450.20 368.00 450.20 368.00 480.00" fill="none" stroke="#334856" stroke-width="1.2"/><path d="M368.00 420.40C368.00 450.20 618.24 450.20 618.24 480.00" fill="none" stroke="#334856" stroke-width="1.2"/><circle cx="198.72" cy="202.80" r="7" fill="#17232c" stroke="#334856" stroke-width="1"/><circle cx="198.72" cy="201.00" r="7" fill="url(#metal)" stroke="#7290a1" stroke-width="1"/><text x="213.72000000000003" y="206" font-size="14" font-weight="400" text-anchor="start" fill="#e3edf3">People</text><circle cx="537.28" cy="202.80" r="7" fill="#17232c" stroke="#334856" stroke-width="1"/><circle cx="537.28" cy="201.00" r="7" fill="url(#metal)" stroke="#7290a1" stroke-width="1"/><text x="522.28" y="206" font-size="14" font-weight="400" text-anchor="end" fill="#e3edf3">Systems</text><circle cx="161.92" cy="401.60" r="7" fill="#17232c" stroke="#334856" stroke-width="1"/><circle cx="161.92" cy="399.80" r="7" fill="url(#metal)" stroke="#7290a1" stroke-width="1"/><text x="176.92" y="404.8" font-size="14" font-weight="400" text-anchor="start" fill="#e3edf3">Software</text><circle cx="574.08" cy="401.60" r="7" fill="#17232c" stroke="#334856" stroke-width="1"/><circle cx="574.08" cy="399.80" r="7" fill="url(#metal)" stroke="#7290a1" stroke-width="1"/><text x="559.08" y="404.8" font-size="14" font-weight="400" text-anchor="end" fill="#e3edf3">AI</text><circle cx="173.72" cy="162.00" r="2.8" fill="#10151b" stroke="#334856" stroke-width="1"/><text x="173.72000000000003" y="181" font-size="13" font-weight="400" text-anchor="middle" fill="#9cb0bd">Users</text><circle cx="173.72" cy="240.00" r="2.8" fill="#10151b" stroke="#334856" stroke-width="1"/><text x="173.72000000000003" y="259" font-size="13" font-weight="400" text-anchor="middle" fill="#9cb0bd">Community</text><circle cx="562.28" cy="162.00" r="2.8" fill="#10151b" stroke="#334856" stroke-width="1"/><text x="562.28" y="181" font-size="13" font-weight="400" text-anchor="middle" fill="#9cb0bd">Linux</text><circle cx="562.28" cy="240.00" r="2.8" fill="#10151b" stroke="#334856" stroke-width="1"/><text x="562.28" y="259" font-size="13" font-weight="400" text-anchor="middle" fill="#9cb0bd">Networking</text><circle cx="136.92" cy="360.80" r="2.8" fill="#10151b" stroke="#334856" stroke-width="1"/><text x="136.92" y="379.8" font-size="13" font-weight="400" text-anchor="middle" fill="#9cb0bd">Interfaces</text><circle cx="136.92" cy="438.80" r="2.8" fill="#10151b" stroke="#334856" stroke-width="1"/><text x="136.92" y="457.8" font-size="13" font-weight="400" text-anchor="middle" fill="#9cb0bd">Developer tools</text><circle cx="599.08" cy="360.80" r="2.8" fill="#10151b" stroke="#334856" stroke-width="1"/><text x="599.08" y="379.8" font-size="13" font-weight="400" text-anchor="middle" fill="#9cb0bd">Local models</text><circle cx="599.08" cy="438.80" r="2.8" fill="#10151b" stroke="#334856" stroke-width="1"/><text x="599.08" y="457.8" font-size="13" font-weight="400" text-anchor="middle" fill="#9cb0bd">Agents</text><circle cx="368.00" cy="331.40" r="41" fill="#17232c" stroke="#334856" stroke-width="1"/><circle cx="368.00" cy="328.40" r="41" fill="url(#metal)" stroke="#7290a1" stroke-width="1"/><circle cx="368.00" cy="328.40" r="32" fill="none" stroke="#334856" stroke-width="0.8"/><text x="369.0" y="335.7" font-size="19" font-weight="400" text-anchor="middle" fill="#7290a1" opacity=".45" aria-hidden="true">BM</text><text x="368.0" y="334.4" font-size="19" font-weight="400" text-anchor="middle" fill="#e3edf3">BM</text><text x="368.0" y="412.4" font-size="13" font-weight="400" text-anchor="middle" fill="#9cb0bd">recorded actions</text><circle cx="117.76" cy="481.00" r="3.5" fill="#7290a1" stroke="none" stroke-width="1"/><text x="117.76" y="532" font-size="13" font-weight="400" text-anchor="middle" fill="#9cb0bd">Commits</text><circle cx="368.00" cy="481.00" r="3.5" fill="#7290a1" stroke="none" stroke-width="1"/><text x="368.0" y="532" font-size="13" font-weight="400" text-anchor="middle" fill="#9cb0bd">PRs opened</text><circle cx="618.24" cy="481.00" r="3.5" fill="#7290a1" stroke="none" stroke-width="1"/><text x="618.24" y="532" font-size="13" font-weight="400" text-anchor="middle" fill="#9cb0bd">Issues opened</text><path d="M32 556H704" stroke="#334856"/><circle cx="35.00" cy="582.00" r="3" fill="#91d7e8" stroke="none" stroke-width="1"/><rect x="171" y="579" width="6" height="6" fill="#d6a17b"/><g class="snapshot"><text x="368.0" y="393.4" font-size="23" font-weight="400" text-anchor="middle" fill="#e3edf3">1,193</text><text x="117.76" y="509" font-size="25" font-weight="400" text-anchor="middle" fill="#e3edf3">802</text><text x="368.0" y="509" font-size="25" font-weight="400" text-anchor="middle" fill="#e3edf3">259</text><text x="618.24" y="509" font-size="25" font-weight="400" text-anchor="middle" fill="#e3edf3">132</text><text x="47" y="587" font-size="14" font-weight="400" text-anchor="start" fill="#e3edf3">38 public</text><text x="187" y="587" font-size="14" font-weight="400" text-anchor="start" fill="#e3edf3">1,155 private</text><text x="704" y="587" font-size="13" font-weight="400" text-anchor="end" fill="#9cb0bd">11 Sep 2026</text></g><text x="32" y="616" font-size="12" font-weight="400" text-anchor="start" fill="#9cb0bd">18 Jul – 11 Sep 2026 · 56 UTC days</text><text x="32" y="639" font-size="12" font-weight="400" text-anchor="start" fill="#9cb0bd">Counted activity · illustrative connections</text></svg>
