<svg xmlns="http://www.w3.org/2000/svg" width="360" height="590" viewBox="0 0 360 590" role="img" aria-labelledby="title desc"><title id="title">Public and private activity totals, with private daily activity revealed.</title><desc id="desc">THE PRIVATE LAYER 1,155 PRIVATE ACTIONS Recorded action Public Private Commits 38 764 PRs opened 0 259 Issues opened 0 132 1,193 total recorded actions 56 days · aggregate counts only</desc><style>text{font-family:DejaVu Sans,Arial,sans-serif}.flow{animation:flow 7s linear infinite}.scan{animation:scan 5s ease-in-out infinite}@keyframes flow{to{stroke-dashoffset:-160}}@keyframes scan{0%,100%{opacity:.4}50%{opacity:1}}@media(prefers-reduced-motion:reduce){.flow,.scan{animation:none}}</style><defs><linearGradient id="metal" x1="0" y1="0" x2="1" y2="1"><stop stop-color="#3a5160"/><stop offset="1" stop-color="#253b48"/></linearGradient></defs><rect width="100%" height="100%" fill="#10151b"/><text x="22" y="38" fill="#dda57f" font-size="15" font-weight="400">THE PRIVATE LAYER</text><text x="23.5" y="113.5" fill="#172a35" font-size="53" font-weight="500" aria-hidden="true">1,155</text><text x="22.75" y="112.75" fill="#172a35" font-size="53" font-weight="500" aria-hidden="true">1,155</text><text x="22" y="112" fill="#e4edf2" font-size="53" font-weight="500">1,155</text><text x="22" y="143" fill="#dda57f" font-size="15" font-weight="400">PRIVATE ACTIONS</text><g transform="translate(180.0 268) scale(0.9)" aria-hidden="true"><path d="M-141.90,-1.08L9.46,48.20L9.46,54.20L-141.90,4.92Z" fill="#253b48" stroke="#354957" stroke-width=".8" stroke-linejoin="round"/><path d="M141.90,5.08L141.90,11.08L9.46,54.20L9.46,48.20Z" fill="#172a35" stroke="#354957" stroke-width=".8" stroke-linejoin="round"/><path d="M-9.46,-44.20L141.90,5.08L9.46,48.20L-141.90,-1.08Z" fill="url(#metal)" stroke="#354957" stroke-width=".8" stroke-linejoin="round"/><path d="M-22.36,-44.92L-9.46,-40.72L-9.46,-36.12L-22.36,-40.32Z" fill="#916647"/><path d="M3.44,-44.92L3.44,-40.32L-9.46,-36.12L-9.46,-40.72Z" fill="#916647"/><path d="M-9.46,-49.12L3.44,-44.92L-9.46,-40.72L-22.36,-44.92Z" fill="#dda57f"/><path d="M-3.44,-47.96L9.46,-43.76L9.46,-29.96L-3.44,-34.16Z" fill="#916647"/><path d="M22.36,-47.96L22.36,-34.16L9.46,-29.96L9.46,-43.76Z" fill="#916647"/><path d="M9.46,-52.16L22.36,-47.96L9.46,-43.76L-3.44,-47.96Z" fill="#dda57f"/><path d="M-41.28,-47.04L-28.38,-42.84L-28.38,-29.96L-41.28,-34.16Z" fill="#916647"/><path d="M-15.48,-47.04L-15.48,-34.16L-28.38,-29.96L-28.38,-42.84Z" fill="#916647"/><path d="M-28.38,-51.24L-15.48,-47.04L-28.38,-42.84L-41.28,-47.04Z" fill="#dda57f"/><path d="M15.48,-44.10L28.38,-39.90L28.38,-23.80L15.48,-28.00Z" fill="#916647"/><path d="M41.28,-44.10L41.28,-28.00L28.38,-23.80L28.38,-39.90Z" fill="#916647"/><path d="M28.38,-48.30L41.28,-44.10L28.38,-39.90L15.48,-44.10Z" fill="#dda57f"/><ellipse cx="-9.459999999999999" cy="-32.2" rx="2.1" ry=".9" fill="#354957"/><ellipse cx="-47.3" cy="-32.2" rx="2.1" ry=".9" fill="#354957"/><path d="M34.40,-50.36L47.30,-46.16L47.30,-17.64L34.40,-21.84Z" fill="#916647"/><path d="M60.20,-50.36L60.20,-21.84L47.30,-17.64L47.30,-46.16Z" fill="#916647"/><path d="M47.30,-54.56L60.20,-50.36L47.30,-46.16L34.40,-50.36Z" fill="#dda57f"/><path d="M-3.44,-25.06L9.46,-20.86L9.46,-17.64L-3.44,-21.84Z" fill="#916647"/><path d="M22.36,-25.06L22.36,-21.84L9.46,-17.64L9.46,-20.86Z" fill="#916647"/><path d="M9.46,-29.26L22.36,-25.06L9.46,-20.86L-3.44,-25.06Z" fill="#dda57f"/><path d="M-41.28,-36.56L-28.38,-32.36L-28.38,-17.64L-41.28,-21.84Z" fill="#916647"/><path d="M-15.48,-36.56L-15.48,-21.84L-28.38,-17.64L-28.38,-32.36Z" fill="#916647"/><path d="M-28.38,-40.76L-15.48,-36.56L-28.38,-32.36L-41.28,-36.56Z" fill="#dda57f"/><path d="M-79.12,-57.26L-66.22,-53.06L-66.22,-17.64L-79.12,-21.84Z" fill="#916647"/><path d="M-53.32,-57.26L-53.32,-21.84L-66.22,-17.64L-66.22,-53.06Z" fill="#916647"/><path d="M-66.22,-61.46L-53.32,-57.26L-66.22,-53.06L-79.12,-57.26Z" fill="#dda57f"/><path d="M53.32,-35.00L66.22,-30.80L66.22,-11.48L53.32,-15.68Z" fill="#916647"/><path d="M79.12,-35.00L79.12,-15.68L66.22,-11.48L66.22,-30.80Z" fill="#916647"/><path d="M66.22,-39.20L79.12,-35.00L66.22,-30.80L53.32,-35.00Z" fill="#dda57f"/><path d="M15.48,-32.70L28.38,-28.50L28.38,-11.48L15.48,-15.68Z" fill="#916647"/><path d="M41.28,-32.70L41.28,-15.68L28.38,-11.48L28.38,-28.50Z" fill="#916647"/><path d="M28.38,-36.90L41.28,-32.70L28.38,-28.50L15.48,-32.70Z" fill="#dda57f"/><path d="M-22.36,-16.60L-9.46,-12.40L-9.46,-11.48L-22.36,-15.68Z" fill="#916647"/><path d="M3.44,-16.60L3.44,-15.68L-9.46,-11.48L-9.46,-12.40Z" fill="#916647"/><path d="M-9.46,-20.80L3.44,-16.60L-9.46,-12.40L-22.36,-16.60Z" fill="#dda57f"/><path d="M-60.20,-25.34L-47.30,-21.14L-47.30,-11.48L-60.20,-15.68Z" fill="#916647"/><path d="M-34.40,-25.34L-34.40,-15.68L-47.30,-11.48L-47.30,-21.14Z" fill="#916647"/><path d="M-47.30,-29.54L-34.40,-25.34L-47.30,-21.14L-60.20,-25.34Z" fill="#dda57f"/><ellipse cx="-85.14" cy="-19.880000000000003" rx="2.1" ry=".9" fill="#354957"/><path d="M72.24,-31.60L85.14,-27.40L85.14,-5.32L72.24,-9.52Z" fill="#916647"/><path d="M98.04,-31.60L98.04,-9.52L85.14,-5.32L85.14,-27.40Z" fill="#916647"/><path d="M85.14,-35.80L98.04,-31.60L85.14,-27.40L72.24,-31.60Z" fill="#dda57f"/><path d="M34.40,-23.32L47.30,-19.12L47.30,-5.32L34.40,-9.52Z" fill="#916647"/><path d="M60.20,-23.32L60.20,-9.52L47.30,-5.32L47.30,-19.12Z" fill="#916647"/><path d="M47.30,-27.52L60.20,-23.32L47.30,-19.12L34.40,-23.32Z" fill="#dda57f"/><ellipse cx="9.459999999999999" cy="-13.72" rx="2.1" ry=".9" fill="#354957"/><ellipse cx="-28.38" cy="-13.72" rx="2.1" ry=".9" fill="#354957"/><path d="M-79.12,-11.36L-66.22,-7.16L-66.22,-5.32L-79.12,-9.52Z" fill="#916647"/><path d="M-53.32,-11.36L-53.32,-9.52L-66.22,-5.32L-66.22,-7.16Z" fill="#916647"/><path d="M-66.22,-15.56L-53.32,-11.36L-66.22,-7.16L-79.12,-11.36Z" fill="#dda57f"/><ellipse cx="-104.06" cy="-13.72" rx="2.1" ry=".9" fill="#354957"/><path d="M91.16,-11.18L104.06,-6.98L104.06,0.84L91.16,-3.36Z" fill="#916647"/><path d="M116.96,-11.18L116.96,-3.36L104.06,0.84L104.06,-6.98Z" fill="#916647"/><path d="M104.06,-15.38L116.96,-11.18L104.06,-6.98L91.16,-11.18Z" fill="#dda57f"/><path d="M53.32,-4.28L66.22,-0.08L66.22,0.84L53.32,-3.36Z" fill="#916647"/><path d="M79.12,-4.28L79.12,-3.36L66.22,0.84L66.22,-0.08Z" fill="#916647"/><path d="M66.22,-8.48L79.12,-4.28L66.22,-0.08L53.32,-4.28Z" fill="#dda57f"/><path d="M15.48,-7.50L28.38,-3.30L28.38,0.84L15.48,-3.36Z" fill="#916647"/><path d="M41.28,-7.50L41.28,-3.36L28.38,0.84L28.38,-3.30Z" fill="#916647"/><path d="M28.38,-11.70L41.28,-7.50L28.38,-3.30L15.48,-7.50Z" fill="#dda57f"/><ellipse cx="-9.459999999999999" cy="-7.5600000000000005" rx="2.1" ry=".9" fill="#354957"/><path d="M-60.20,-7.96L-47.30,-3.76L-47.30,0.84L-60.20,-3.36Z" fill="#916647"/><path d="M-34.40,-7.96L-34.40,-3.36L-47.30,0.84L-47.30,-3.76Z" fill="#916647"/><path d="M-47.30,-12.16L-34.40,-7.96L-47.30,-3.76L-60.20,-7.96Z" fill="#dda57f"/><path d="M-98.04,-5.20L-85.14,-1.00L-85.14,0.84L-98.04,-3.36Z" fill="#916647"/><path d="M-72.24,-5.20L-72.24,-3.36L-85.14,0.84L-85.14,-1.00Z" fill="#916647"/><path d="M-85.14,-9.40L-72.24,-5.20L-85.14,-1.00L-98.04,-5.20Z" fill="#dda57f"/><ellipse cx="-122.98" cy="-7.5600000000000005" rx="2.1" ry=".9" fill="#354957"/><path d="M110.08,-80.00L122.98,-75.80L122.98,7.00L110.08,2.80Z" fill="#916647"/><path d="M135.88,-80.00L135.88,2.80L122.98,7.00L122.98,-75.80Z" fill="#916647"/><path d="M122.98,-84.20L135.88,-80.00L122.98,-75.80L110.08,-80.00Z" fill="#dda57f"/><path d="M72.24,-39.98L85.14,-35.78L85.14,7.00L72.24,2.80Z" fill="#916647"/><path d="M98.04,-39.98L98.04,2.80L85.14,7.00L85.14,-35.78Z" fill="#916647"/><path d="M85.14,-44.18L98.04,-39.98L85.14,-35.78L72.24,-39.98Z" fill="#dda57f"/><ellipse cx="47.3" cy="-1.4000000000000001" rx="2.1" ry=".9" fill="#354957"/><path d="M-3.44,-5.02L9.46,-0.82L9.46,7.00L-3.44,2.80Z" fill="#916647"/><path d="M22.36,-5.02L22.36,2.80L9.46,7.00L9.46,-0.82Z" fill="#916647"/><path d="M9.46,-9.22L22.36,-5.02L9.46,-0.82L-3.44,-5.02Z" fill="#dda57f"/><path d="M-41.28,-1.34L-28.38,2.86L-28.38,7.00L-41.28,2.80Z" fill="#916647"/><path d="M-15.48,-1.34L-15.48,2.80L-28.38,7.00L-28.38,2.86Z" fill="#916647"/><path d="M-28.38,-5.54L-15.48,-1.34L-28.38,2.86L-41.28,-1.34Z" fill="#dda57f"/><ellipse cx="-66.22" cy="-1.4000000000000001" rx="2.1" ry=".9" fill="#354957"/><path d="M-116.96,-37.22L-104.06,-33.02L-104.06,7.00L-116.96,2.80Z" fill="#916647"/><path d="M-91.16,-37.22L-91.16,2.80L-104.06,7.00L-104.06,-33.02Z" fill="#916647"/><path d="M-104.06,-41.42L-91.16,-37.22L-104.06,-33.02L-116.96,-37.22Z" fill="#dda57f"/><path d="M91.16,7.12L104.06,11.32L104.06,13.16L91.16,8.96Z" fill="#916647"/><path d="M116.96,7.12L116.96,8.96L104.06,13.16L104.06,11.32Z" fill="#916647"/><path d="M104.06,2.92L116.96,7.12L104.06,11.32L91.16,7.12Z" fill="#dda57f"/><path d="M53.32,-2.54L66.22,1.66L66.22,13.16L53.32,8.96Z" fill="#916647"/><path d="M79.12,-2.54L79.12,8.96L66.22,13.16L66.22,1.66Z" fill="#916647"/><path d="M66.22,-6.74L79.12,-2.54L66.22,1.66L53.32,-2.54Z" fill="#dda57f"/><ellipse cx="28.38" cy="4.760000000000001" rx="2.1" ry=".9" fill="#354957"/><ellipse cx="-9.459999999999999" cy="4.760000000000001" rx="2.1" ry=".9" fill="#354957"/><path d="M-60.20,-9.90L-47.30,-5.70L-47.30,13.16L-60.20,8.96Z" fill="#916647"/><path d="M-34.40,-9.90L-34.40,8.96L-47.30,13.16L-47.30,-5.70Z" fill="#916647"/><path d="M-47.30,-14.10L-34.40,-9.90L-47.30,-5.70L-60.20,-9.90Z" fill="#dda57f"/><path d="M-98.04,7.58L-85.14,11.78L-85.14,13.16L-98.04,8.96Z" fill="#916647"/><path d="M-72.24,7.58L-72.24,8.96L-85.14,13.16L-85.14,11.78Z" fill="#916647"/><path d="M-85.14,3.38L-72.24,7.58L-85.14,11.78L-98.04,7.58Z" fill="#dda57f"/><path d="M72.24,-9.72L85.14,-5.52L85.14,19.32L72.24,15.12Z" fill="#916647"/><path d="M98.04,-9.72L98.04,15.12L85.14,19.32L85.14,-5.52Z" fill="#916647"/><path d="M85.14,-13.92L98.04,-9.72L85.14,-5.52L72.24,-9.72Z" fill="#dda57f"/><path d="M34.40,14.66L47.30,18.86L47.30,19.32L34.40,15.12Z" fill="#916647"/><path d="M60.20,14.66L60.20,15.12L47.30,19.32L47.30,18.86Z" fill="#916647"/><path d="M47.30,10.46L60.20,14.66L47.30,18.86L34.40,14.66Z" fill="#dda57f"/><path d="M-3.44,14.20L9.46,18.40L9.46,19.32L-3.44,15.12Z" fill="#916647"/><path d="M22.36,14.20L22.36,15.12L9.46,19.32L9.46,18.40Z" fill="#916647"/><path d="M9.46,10.00L22.36,14.20L9.46,18.40L-3.44,14.20Z" fill="#dda57f"/><path d="M-41.28,13.28L-28.38,17.48L-28.38,19.32L-41.28,15.12Z" fill="#916647"/><path d="M-15.48,13.28L-15.48,15.12L-28.38,19.32L-28.38,17.48Z" fill="#916647"/><path d="M-28.38,9.08L-15.48,13.28L-28.38,17.48L-41.28,13.28Z" fill="#dda57f"/><path d="M-79.12,-13.86L-66.22,-9.66L-66.22,19.32L-79.12,15.12Z" fill="#916647"/><path d="M-53.32,-13.86L-53.32,15.12L-66.22,19.32L-66.22,-9.66Z" fill="#916647"/><path d="M-66.22,-18.06L-53.32,-13.86L-66.22,-9.66L-79.12,-13.86Z" fill="#dda57f"/><ellipse cx="66.22" cy="17.080000000000002" rx="2.1" ry=".9" fill="#354957"/><path d="M15.48,20.82L28.38,25.02L28.38,25.48L15.48,21.28Z" fill="#916647"/><path d="M41.28,20.82L41.28,21.28L28.38,25.48L28.38,25.02Z" fill="#916647"/><path d="M28.38,16.62L41.28,20.82L28.38,25.02L15.48,20.82Z" fill="#dda57f"/><ellipse cx="-9.459999999999999" cy="17.080000000000002" rx="2.1" ry=".9" fill="#354957"/><ellipse cx="-47.3" cy="17.080000000000002" rx="2.1" ry=".9" fill="#354957"/><path d="M34.40,23.76L47.30,27.96L47.30,31.64L34.40,27.44Z" fill="#916647"/><path d="M60.20,23.76L60.20,27.44L47.30,31.64L47.30,27.96Z" fill="#916647"/><path d="M47.30,19.56L60.20,23.76L47.30,27.96L34.40,23.76Z" fill="#dda57f"/><ellipse cx="9.459999999999999" cy="23.240000000000002" rx="2.1" ry=".9" fill="#354957"/><ellipse cx="-28.38" cy="23.240000000000002" rx="2.1" ry=".9" fill="#354957"/><ellipse cx="28.38" cy="29.400000000000002" rx="2.1" ry=".9" fill="#354957"/><path d="M-22.36,8.30L-9.46,12.50L-9.46,37.80L-22.36,33.60Z" fill="#916647"/><path d="M3.44,8.30L3.44,33.60L-9.46,37.80L-9.46,12.50Z" fill="#916647"/><path d="M-9.46,4.10L3.44,8.30L-9.46,12.50L-22.36,8.30Z" fill="#dda57f"/><path d="M-3.44,39.30L9.46,43.50L9.46,43.96L-3.44,39.76Z" fill="#916647"/><path d="M22.36,39.30L22.36,39.76L9.46,43.96L9.46,43.50Z" fill="#916647"/><path d="M9.46,35.10L22.36,39.30L9.46,43.50L-3.44,39.30Z" fill="#dda57f"/></g><path d="M22 339H338" stroke="#354957"/><text x="22" y="358" fill="#a5b6c2" font-size="15" font-weight="400">Recorded action</text><text x="244" y="358" fill="#8acee4" font-size="15" font-weight="400" text-anchor="end">Public</text><text x="337" y="358" fill="#dda57f" font-size="15" font-weight="400" text-anchor="end">Private</text><text x="22" y="397" fill="#e4edf2" font-size="17" font-weight="400">Commits</text><text x="244" y="397" fill="#e4edf2" font-size="18" font-weight="400" text-anchor="end">38</text><text x="337" y="397" fill="#e4edf2" font-size="18" font-weight="400" text-anchor="end">764</text><text x="22" y="439" fill="#e4edf2" font-size="17" font-weight="400">PRs opened</text><text x="244" y="439" fill="#e4edf2" font-size="18" font-weight="400" text-anchor="end">0</text><text x="337" y="439" fill="#e4edf2" font-size="18" font-weight="400" text-anchor="end">259</text><text x="22" y="481" fill="#e4edf2" font-size="17" font-weight="400">Issues opened</text><text x="244" y="481" fill="#e4edf2" font-size="18" font-weight="400" text-anchor="end">0</text><text x="337" y="481" fill="#e4edf2" font-size="18" font-weight="400" text-anchor="end">132</text><path d="M22 497H338" stroke="#354957"/><text x="22" y="530" fill="#e4edf2" font-size="19" font-weight="500">1,193 total recorded actions</text><text x="22" y="566" fill="#a5b6c2" font-size="15" font-weight="400">56 days · aggregate counts only</text></svg>